<?xml version="1.0" encoding="utf-8"?>
<!-- Generator: Adobe Illustrator 18.1.0, SVG Export Plug-In . SVG Version: 6.00 Build 0)  -->
<svg version="1.1" id="Layer_1" xmlns="http://www.w3.org/2000/svg" xmlns:xlink="http://www.w3.org/1999/xlink" x="0px" y="0px"
	 viewBox="0 0 159.9 82.1" enable-background="new 0 0 159.9 82.1" xml:space="preserve">
<g>
	<g>
		<path fill="#0F2F7F" d="M120,81.8l-2.7-0.3L77.8,42v-0.9c0-0.2,0.2-21.6,21.6-21.6c11.6,0,17,6.3,19.4,12.1
			c2.5-5.8,7.9-12.1,19.4-12.1c21.4,0,21.6,21.4,21.6,21.6V42L120,81.8z M82.2,40.2l36.7,36.7l36.7-36.7
			c-0.3-3.5-2.2-16.4-17.2-16.4c-17,0-17.3,16.6-17.3,17.3l-4.3,0c0-0.7-0.3-17.3-17.3-17.3C84.4,23.8,82.4,36.7,82.2,40.2z"/>
	</g>
	<path fill="#0F2F7F" d="M82.1,82.1H0V0h82.1V82.1z M4.3,77.8h73.5V4.3H4.3V77.8z"/>
	<path fill="#0F2F7F" d="M159.9,82.1H77.8V0h82.1V82.1z M82.1,77.8h73.5V4.3H82.1V77.8z"/>
	<g>
		<path fill="#0F2F7F" d="M15.2,22h-2.4v-9.8h3.6c2.5,0,3.7,1.5,3.7,3.4c0,1.9-1.3,3.4-3.7,3.4h-1.2V22z M15.2,14.2v2.6h0.7
			c1,0,1.7-0.3,1.7-1.3c0-1-0.7-1.3-1.7-1.3H15.2z"/>
		<path fill="#0F2F7F" d="M20.3,18.7c0-2,1.6-3.4,3.5-3.4c2,0,3.5,1.4,3.5,3.4c0,2-1.6,3.4-3.5,3.4C21.8,22.1,20.3,20.7,20.3,18.7z
			 M22.5,18.7c0,0.8,0.5,1.4,1.3,1.4c0.7,0,1.3-0.6,1.3-1.4c0-0.8-0.5-1.4-1.3-1.4C23,17.3,22.5,17.9,22.5,18.7z"/>
		<path fill="#0F2F7F" d="M32.6,17.8h-0.8c-1,0-1.2,0.4-1.2,1.2v3h-2.2v-6.5h2.2v1c0.3-0.7,0.9-1.1,1.6-1.1c0.2,0,0.3,0,0.5,0.1
			V17.8z"/>
		<path fill="#0F2F7F" d="M36.3,13.1v2.3h1.3v1.9h-1.3v2.3c0,0.4,0.3,0.4,0.6,0.4c0.4,0,0.7,0,0.7,0V22c0,0-1.1,0.1-1.6,0.1
			c-1.1,0-2-0.3-2-1.6v-3h-1v-1.9h1v-2.3H36.3z"/>
		<path fill="#0F2F7F" d="M38.3,18.7c0-2,1.6-3.4,3.5-3.4c2,0,3.5,1.4,3.5,3.4c0,2-1.6,3.4-3.5,3.4C39.9,22.1,38.3,20.7,38.3,18.7z
			 M40.6,18.7c0,0.8,0.5,1.4,1.3,1.4c0.7,0,1.3-0.6,1.3-1.4c0-0.8-0.5-1.4-1.3-1.4C41.1,17.3,40.6,17.9,40.6,18.7z"/>
		<path fill="#0F2F7F" d="M47.6,19.3c0.8,0,1.4,0.6,1.4,1.4c0,0.8-0.6,1.4-1.4,1.4c-0.8,0-1.4-0.6-1.4-1.4
			C46.2,20,46.8,19.3,47.6,19.3z"/>
		<path fill="#0F2F7F" d="M14,36h-0.9v-9.8h2.6c2.2,0,3.4,1.3,3.4,3c0,1.6-1.1,3-3.4,3H14V36z M14,27v4.5h1.8c1.3,0,2.4-0.8,2.4-2.3
			c0-1.5-1.1-2.2-2.4-2.2H14z"/>
		<path fill="#0F2F7F" d="M22.7,29.7c1.8,0,3.2,1.4,3.2,3.3s-1.4,3.3-3.2,3.3c-1.8,0-3.2-1.4-3.2-3.3S21,29.7,22.7,29.7z M22.7,30.4
			c-1.4,0-2.3,1.1-2.3,2.5c0,1.4,1,2.5,2.3,2.5c1.4,0,2.3-1.1,2.3-2.5C25.1,31.5,24.1,30.4,22.7,30.4z"/>
		<path fill="#0F2F7F" d="M30.6,30.6h-0.4c-1.1,0-1.9,0.5-1.9,2V36h-0.8v-6.2h0.8v1.1c0.4-0.8,1.1-1.2,1.9-1.2c0.1,0,0.3,0,0.5,0
			V30.6z"/>
		<path fill="#0F2F7F" d="M33.1,27.2v2.6h1.5v0.7h-1.5v4.2c0,0.6,0.4,0.6,0.9,0.6c0.4,0,0.6,0,0.6,0V36c0,0-0.4,0.1-1,0.1
			c-0.6,0-1.4-0.2-1.4-1.3v-4.2h-1.1v-0.7h1.1v-2.6H33.1z"/>
		<path fill="#0F2F7F" d="M38.7,29.7c1.8,0,3.2,1.4,3.2,3.3s-1.4,3.3-3.2,3.3c-1.8,0-3.2-1.4-3.2-3.3S36.9,29.7,38.7,29.7z
			 M38.7,30.4c-1.4,0-2.3,1.1-2.3,2.5c0,1.4,1,2.5,2.3,2.5c1.4,0,2.3-1.1,2.3-2.5C41,31.5,40.1,30.4,38.7,30.4z"/>
		<path fill="#0F2F7F" d="M13.1,50.1v-9.8H14v9.1h4.4v0.8H13.1z"/>
		<path fill="#0F2F7F" d="M23.3,45.8c0-0.9-0.7-1.3-1.6-1.3c-0.8,0-1.4,0.3-1.9,0.7l-0.4-0.6c0.4-0.3,1.3-0.8,2.4-0.8
			c1.5,0,2.4,0.8,2.4,2.1v4.3h-0.9v-0.8c-0.4,0.6-1.2,0.9-1.9,0.9c-1.3,0-2.2-0.8-2.2-1.9c0-1.1,0.8-1.8,2.1-1.8h1.5
			c0.4,0,0.6-0.2,0.6-0.6V45.8z M23.3,47.9V47c-0.2,0.2-0.5,0.2-0.8,0.2h-1.2c-0.9,0-1.3,0.4-1.3,1.1c0,0.5,0.4,1.2,1.4,1.2
			C22.4,49.5,23.3,49,23.3,47.9z"/>
		<path fill="#0F2F7F" d="M30.3,44.6l-3.8,4.7h3.8v0.7h-4.8v-0.7l3.8-4.7h-3.8v-0.7h4.8V44.6z"/>
		<path fill="#0F2F7F" d="M32.2,47.2c0.1,1.3,1,2.2,2.3,2.2c0.8,0,1.5-0.4,1.9-1.1h1c-0.5,1.1-1.6,1.8-2.9,1.8
			c-1.8,0-3.1-1.4-3.1-3.3s1.4-3.3,3.1-3.3c1.6,0,3.1,1.1,3.1,3.5v0H32.2z M32.2,46.5h4.4c-0.1-1.1-0.9-2.1-2.2-2.1
			C33.2,44.5,32.4,45.3,32.2,46.5z"/>
		<path fill="#0F2F7F" d="M42.2,44.6h-0.4c-1.1,0-1.9,0.5-1.9,2v3.5H39v-6.2h0.8v1.1c0.4-0.8,1.1-1.2,1.9-1.2c0.1,0,0.3,0,0.5,0
			V44.6z"/>
	</g>
</g>
</svg>
